<?xml version="1.0" encoding="UTF-8"?>
<svg width="190px" height="47px" viewBox="0 0 190 47" version="1.1" xmlns="http://www.w3.org/2000/svg" xmlns:xlink="http://www.w3.org/1999/xlink">
    <!-- Generator: Sketch 53.1 (72631) - https://sketchapp.com -->
    <title>1x/logo-white</title>
    <desc>Created with Sketch.</desc>
    <defs>
        <polygon id="path-1" points="0.9754 0.0658 6.438 0.0658 6.438 5.5298 0.9754 5.5298"></polygon>
        <polygon id="path-3" points="0 0.622 43.2476712 0.622 43.2476712 47 0 47"></polygon>
    </defs>
    <g id="Page-1" stroke="none" stroke-width="1" fill="none" fill-rule="evenodd">
        <g id="sparepap-landing" transform="translate(-144.000000, -38.000000)">
            <g id="header-nav">
                <g id="logo-white" transform="translate(144.000000, 37.000000)">
                    <g id="logo">
                        <path d="M64.0624,21.912 C61.2474,21.11 58.8164,20.418 58.8164,17.802 C58.8164,15.473 60.3064,14.189 63.0124,14.189 C65.8754,14.189 67.5184,16.007 67.5184,19.176 L67.5184,19.274 L71.0474,19.274 L71.0474,19.176 C71.0474,13.973 68.0434,10.866 63.0124,10.866 C58.1034,10.866 55.2874,13.394 55.2874,17.802 C55.2874,22.861 59.1704,23.996 62.5974,24.997 C65.3674,25.806 67.7584,26.504 67.7584,29.036 C67.7584,31.362 66.0484,32.752 63.1844,32.752 C60.1464,32.752 58.4734,30.92 58.4734,27.594 L58.4734,27.495 L54.9434,27.495 L54.9434,27.594 C54.9434,32.947 58.0244,36.143 63.1844,36.143 C68.2804,36.143 71.3224,33.461 71.3224,28.968 C71.3224,23.98 67.4654,22.882 64.0624,21.912" id="Fill-1" fill="#FFFFFF"></path>
                        <path d="M84.9701,27.9365 C84.9701,31.3115 83.5901,33.0945 80.9801,33.0945 C78.3921,33.0945 77.0241,31.3115 77.0241,27.9365 L77.0241,23.9525 C77.0241,20.6695 78.4291,18.8625 80.9801,18.8625 C83.5901,18.8625 84.9701,20.6685 84.9701,24.0885 L84.9701,27.9365 Z M82.0111,15.9855 C79.4761,15.9855 77.6331,17.3095 76.8521,18.6605 L76.8521,16.2255 L73.6321,16.2255 L73.6321,42.2245 L77.0241,42.2245 L77.0241,33.5045 C77.7431,34.7575 79.3661,35.9715 82.0111,35.9715 C86.0091,35.9715 88.3961,33.1225 88.3961,28.3495 L88.3961,24.7415 C88.3961,18.9315 86.2481,15.9855 82.0111,15.9855 L82.0111,15.9855 Z" id="Fill-3" fill="#FFFFFF"></path>
                        <path d="M101.7695,27.9365 C101.7695,31.3565 100.4015,33.1635 97.8135,33.1635 C95.1895,33.1635 93.8585,31.4055 93.8585,27.9365 L93.8585,23.9855 C93.8585,20.6115 95.2265,18.8275 97.8135,18.8275 C100.3645,18.8275 101.7695,20.6105 101.7695,23.8475 L101.7695,27.9365 Z M101.9415,18.6035 C101.2755,17.4805 99.6255,15.9515 96.7835,15.9515 C92.8065,15.9515 90.4325,18.8005 90.4325,23.5745 L90.4325,28.3825 C90.4325,33.1775 92.8065,36.0405 96.7835,36.0405 C99.6445,36.0405 101.2845,34.5175 101.9415,33.3955 L101.9415,35.7315 L105.1615,35.7315 L105.1615,16.2255 L101.9415,16.2255 L101.9415,18.6035 Z" id="Fill-5" fill="#FFFFFF"></path>
                        <path d="M111.2758,19.2206 L111.2758,16.2256 L108.0558,16.2256 L108.0558,35.7316 L111.4478,35.7316 L111.4478,24.4666 C111.4478,21.1846 113.2058,19.3766 116.3998,19.3766 L116.8758,19.3766 L116.8758,15.9856 L116.1938,15.9856 C113.7768,15.9856 111.9618,17.5616 111.2758,19.2206" id="Fill-7" fill="#FFFFFF"></path>
                        <path d="M128.3598,24.4374 L120.4138,24.4374 L120.4138,23.0584 C120.4138,20.3914 121.8688,18.8624 124.4038,18.8624 C127.0288,18.8624 128.3598,20.3664 128.3598,23.3334 L128.3598,24.4374 Z M124.4038,15.9514 C119.7818,15.9514 117.0228,18.8514 117.0228,23.7104 L117.0228,28.3824 C117.0228,33.1264 119.8508,36.0744 124.4038,36.0744 C128.7308,36.0744 131.7518,33.3774 131.7518,29.5174 L131.7518,29.2814 L128.3598,29.2814 L128.3598,29.6894 C128.3598,31.7544 126.7338,33.1984 124.4038,33.1984 C121.9808,33.1984 120.4138,31.5644 120.4138,29.0364 L120.4138,26.9704 L131.7518,26.9704 L131.7518,23.5394 C131.7518,18.7874 129.0058,15.9514 124.4038,15.9514 L124.4038,15.9514 Z" id="Fill-9" fill="#FFFFFF"></path>
                        <path d="M145.017,21.1347 C145.017,24.3987 143.093,25.3607 141.031,25.3607 L138.695,25.3607 L138.695,15.9467 L141.031,15.9467 C143.024,15.9467 145.017,16.6677 145.017,20.2407 L145.017,21.1347 Z M149.655,20.2057 C149.655,14.5377 146.254,11.4107 141.512,11.4107 L133.989,11.4107 L133.989,35.6327 L138.695,35.6327 L138.695,29.8607 L141.512,29.8607 C146.254,29.8607 149.655,26.8717 149.655,21.1677 L149.655,20.2057 Z" id="Fill-11" fill="#FFFFFF"></path>
                        <path d="M154.4643,26.7695 L157.0073,17.2865 L159.4463,26.7695 L154.4643,26.7695 Z M154.4303,11.4115 L147.3873,35.6325 L152.1623,35.6325 L153.4683,30.8575 L160.4433,30.8575 L161.7143,35.6325 L166.4893,35.6325 L159.5493,11.4115 L154.4303,11.4115 Z" id="Fill-13" fill="#FFFFFF"></path>
                        <path d="M178.3071,21.1347 C178.3071,24.3987 176.3831,25.3607 174.3211,25.3607 L171.9851,25.3607 L171.9851,15.9467 L174.3211,15.9467 C176.3141,15.9467 178.3071,16.6677 178.3071,20.2407 L178.3071,21.1347 Z M174.8031,11.4107 L167.2791,11.4107 L167.2791,35.6327 L171.9851,35.6327 L171.9851,29.8607 L174.8031,29.8607 C179.5441,29.8607 182.9451,26.8717 182.9451,21.1677 L182.9451,20.2057 C182.9451,14.5377 179.5441,11.4107 174.8031,11.4107 L174.8031,11.4107 Z" id="Fill-15" fill="#FFFFFF"></path>
                        <path d="M186.1054,28.1777 L187.2734,28.1777 L188.9574,17.3557 C189.1634,15.9807 189.3694,14.8467 189.3694,13.8507 C189.3694,12.3387 188.3724,11.1707 186.6894,11.1707 C185.0054,11.1707 184.0094,12.3387 184.0094,13.8507 C184.0094,14.8467 184.2504,15.9807 184.4564,17.3557 L186.1054,28.1777 Z" id="Fill-17" fill="#FFFFFF"></path>
                        <g id="Group-21" transform="translate(183.000000, 30.378500)">
                            <mask id="mask-2" fill="white">
                                <use xlink:href="#path-1"></use>
                            </mask>
                            <g id="Clip-20"></g>
                            <path d="M3.6894,0.0658 C2.2114,0.0658 0.9754,1.3028 0.9754,2.8148 C0.9754,4.3268 2.2114,5.5298 3.6894,5.5298 C5.2014,5.5298 6.4384,4.3268 6.4384,2.8148 C6.4384,1.3028 5.2014,0.0658 3.6894,0.0658" id="Fill-19" fill="#FFFFFF" mask="url(#mask-2)"></path>
                        </g>
                        <g id="Group-24" transform="translate(0.000000, 0.378500)">
                            <mask id="mask-4" fill="white">
                                <use xlink:href="#path-3"></use>
                            </mask>
                            <g id="Clip-23"></g>
                            <path d="M17.4032,1.6966 L16.7652,4.8426 C15.9242,8.9906 11.6392,11.4656 7.6252,10.1186 L4.5852,9.0986 C4.1712,8.9606 3.7082,9.0886 3.4372,9.4296 C2.0502,11.1806 0.9102,13.1346 0.0712,15.2426 C-0.0908,15.6486 0.0302,16.1166 0.3582,16.4056 L2.7672,18.5336 C5.9402,21.3366 5.9402,26.2856 2.7672,29.0886 L0.3582,31.2166 C0.0302,31.5056 -0.0908,31.9726 0.0712,32.3786 C0.9102,34.4866 2.0502,36.4406 3.4372,38.1906 C3.7082,38.5336 4.1712,38.6616 4.5852,38.5226 L7.6252,37.5026 C11.6392,36.1566 15.9242,38.6306 16.7652,42.7796 L17.4032,45.9256 C17.4892,46.3516 17.8302,46.6876 18.2612,46.7516 C19.3592,46.9126 20.4812,47.0006 21.6242,47.0006 C22.7662,47.0006 23.8882,46.9126 24.9862,46.7516 C25.4172,46.6876 25.7582,46.3516 25.8442,45.9256 L26.4822,42.7796 C27.3232,38.6306 31.6092,36.1566 35.6222,37.5026 L38.6622,38.5226 C39.0762,38.6616 39.5402,38.5336 39.8112,38.1906 C41.1972,36.4406 42.3382,34.4866 43.1762,32.3786 C43.3382,31.9726 43.2172,31.5056 42.8902,31.2166 L40.4812,29.0886 C37.3082,26.2856 37.3082,21.3366 40.4812,18.5336 L42.8902,16.4056 C43.2172,16.1166 43.3382,15.6486 43.1762,15.2426 C42.3382,13.1346 41.1972,11.1806 39.8112,9.4296 C39.5402,9.0886 39.0762,8.9606 38.6622,9.0986 L35.6222,10.1186 C31.6092,11.4656 27.3232,8.9906 26.4822,4.8426 L25.8442,1.6966 C25.7582,1.2686 25.4172,0.9336 24.9862,0.8706 C23.8882,0.7086 22.7662,0.6216 21.6242,0.6216 C20.4812,0.6216 19.3592,0.7086 18.2612,0.8706 C17.8302,0.9336 17.4892,1.2686 17.4032,1.6966" id="Fill-22" fill="#FFFFFF" mask="url(#mask-4)"></path>
                        </g>
                        <path d="M28.4272,21.0019 L14.8212,21.0019 C13.2562,21.0019 11.9882,19.7339 11.9882,18.1699 C11.9882,16.6059 13.2562,15.3369 14.8212,15.3369 L28.4272,15.3369 C29.9912,15.3369 31.2602,16.6059 31.2602,18.1699 C31.2602,19.7339 29.9912,21.0019 28.4272,21.0019" id="Fill-25" fill="#FFFFFF"></path>
                        <path d="M28.4272,15.3368 L14.8212,15.3368 C13.2562,15.3368 11.9882,16.6058 11.9882,18.1698 C11.9882,19.7338 13.2562,21.0018 14.8212,21.0018 L28.4272,21.0018 C29.9912,21.0018 31.2602,19.7338 31.2602,18.1698 C31.2602,16.6058 29.9912,15.3368 28.4272,15.3368" id="Fill-27" fill="#FF4031"></path>
                        <path d="M28.4272,33.0419 L14.8212,33.0419 C13.2562,33.0419 11.9882,31.7729 11.9882,30.2089 C11.9882,28.6449 13.2562,27.3759 14.8212,27.3759 L28.4272,27.3759 C29.9912,27.3759 31.2602,28.6449 31.2602,30.2089 C31.2602,31.7729 29.9912,33.0419 28.4272,33.0419" id="Fill-29" fill="#FF4031"></path>
                        <path d="M28.4272,33.0419 L14.8212,33.0419 C13.2562,33.0419 11.9882,31.7729 11.9882,30.2089 C11.9882,28.6449 13.2562,27.3759 14.8212,27.3759 L28.4272,27.3759 C29.9912,27.3759 31.2602,28.6449 31.2602,30.2089 C31.2602,31.7729 29.9912,33.0419 28.4272,33.0419" id="Fill-31" fill-opacity="0.5" fill="#751313"></path>
                        <polygon id="Fill-33" fill="#751313" opacity="0.75" points="22.2968 21.0019 17.7048 16.9389 24.5878 21.0019"></polygon>
                        <polygon id="Fill-35" fill-opacity="0.75" fill="#751313" points="20.9501 27.3759 26.5501 32.3309 18.9581 27.3759"></polygon>
                        <path d="M28.4262,33.0419 C27.7592,33.0419 27.0892,32.8079 26.5502,32.3309 L12.9432,20.2909 C11.7722,19.2539 11.6622,17.4639 12.6992,16.2929 C13.7362,15.1209 15.5272,15.0129 16.6982,16.0479 L30.3042,28.0869 C31.4762,29.1249 31.5852,30.9139 30.5492,32.0859 C29.9882,32.7189 29.2092,33.0419 28.4262,33.0419" id="Fill-37" fill="#FF4031"></path>
                    </g>
                </g>
            </g>
        </g>
    </g>
</svg>